<svg width="16" height="8" viewBox="0 0 16 8" fill="none" xmlns="http://www.w3.org/2000/svg">
<path d="M6.06673 7.27704C6.1194 7.14535 6.17816 7.0167 6.24197 6.89109C6.3767 6.63886 6.5327 6.39879 6.70288 6.16783C8.54751 6.19214 10.3921 6.16276 12.2348 6.08476C11.6249 6.94985 10.6353 7.57486 9.37714 7.6488C10.8095 7.69337 11.9207 7.03089 12.5842 6.07058C13.7238 6.01791 14.8634 5.94599 16 5.8538C14.9465 5.76871 13.892 5.70084 12.8365 5.64918C13.6317 4.10945 13.4007 2.03791 11.7232 0.771689C8.72276 -1.42951 4.61716 1.42304 5.80538 4.98973C5.0183 1.66412 8.68832 -0.929102 11.475 1.10293C13.0391 2.29926 13.2467 4.19049 12.5062 5.63399C11.628 5.59448 10.7497 5.5651 9.87148 5.5489C10.0325 5.45975 10.1774 5.33212 10.2959 5.15485C10.4681 4.89147 10.5968 4.56023 10.5796 4.24215C10.459 3.87647 9.92314 4.28571 9.75195 4.3546C9.25761 4.64228 8.68731 4.68685 8.13017 4.59974C8.10991 4.5967 8.08965 4.59771 8.0704 4.60683C7.79892 4.7375 7.571 4.90464 7.34004 5.07887C7.15467 5.2217 6.97841 5.37669 6.81026 5.53775C4.53814 5.5651 2.26603 5.66944 0 5.8538C2.07053 6.02196 4.14714 6.12427 6.22374 6.16074C6.09205 6.3137 5.96442 6.46969 5.84084 6.62873C5.73852 6.77359 5.60177 6.89818 5.51263 7.05418C5.45084 7.20714 5.52479 7.38138 5.67775 7.44317C5.83071 7.50395 6.00494 7.43 6.06673 7.27704ZM8.12814 4.79524C8.51307 4.88641 8.9132 4.93402 9.31029 4.86514C9.56252 4.83677 9.82792 4.71218 10.0771 4.61594C9.96568 4.91882 9.76106 5.19334 9.44603 5.29059C9.00032 5.43139 8.48471 5.28451 8.04305 5.12547C8.01064 5.11028 7.97214 5.11028 7.9377 5.1275L7.31776 5.44152C7.5629 5.19334 7.83438 4.96846 8.12814 4.79524Z" fill="#1F2C48"/>
<path d="M10.1389 4.03754C10.4216 4.03754 10.6505 3.8086 10.6505 3.52598C10.6505 3.24336 10.4216 3.01443 10.1389 3.01443C9.85631 3.01443 9.62738 3.24336 9.62738 3.52598C9.62738 3.8086 9.85631 4.03754 10.1389 4.03754Z" fill="#1F2C48"/>
</svg>
