<svg width="133" height="64" viewBox="0 0 133 64" fill="none" xmlns="http://www.w3.org/2000/svg">
<path d="M50.4297 60.4904C50.8676 59.3957 51.3559 58.3263 51.8864 57.2822C53.0063 55.1855 54.3031 53.1899 55.7177 51.2701C71.0512 51.4721 86.3847 51.228 101.701 50.5796C96.6324 57.7706 88.4056 62.966 77.9475 63.5807C89.8539 63.9512 99.0911 58.4442 104.606 50.4617C114.079 50.0238 123.552 49.426 133 48.6597C124.243 47.9524 115.477 47.3883 106.703 46.9588C113.313 34.1598 111.393 16.9401 97.4491 6.41466C72.5079 -11.8828 38.3801 11.829 48.2572 41.4772C41.7146 13.833 72.2216 -7.72316 95.3861 9.16813C108.387 19.1126 110.113 34.8335 103.958 46.8325C96.6576 46.5041 89.3571 46.2599 82.0567 46.1252C83.3955 45.3842 84.5996 44.3232 85.5848 42.8497C87.0163 40.6604 88.0857 37.9069 87.9425 35.2629C86.9405 32.2231 82.4861 35.625 81.0631 36.1976C76.9539 38.589 72.2132 38.9595 67.582 38.2353C67.4136 38.21 67.2452 38.2185 67.0852 38.2942C64.8286 39.3805 62.934 40.7698 61.0141 42.2181C59.4732 43.4054 58.008 44.6937 56.6103 46.0326C37.7233 46.2599 18.8364 47.1272 0 48.6597C17.2113 50.0575 34.4731 50.908 51.7349 51.2111C50.6402 52.4826 49.5792 53.7793 48.5519 55.1013C47.7015 56.3055 46.5647 57.3412 45.8237 58.6379C45.3101 59.9094 45.9248 61.3577 47.1963 61.8713C48.4677 62.3766 49.916 61.7619 50.4297 60.4904ZM67.5652 39.8604C70.7649 40.6183 74.091 41.014 77.3918 40.4414C79.4884 40.2057 81.6946 39.17 83.766 38.37C82.8398 40.8877 81.1388 43.1697 78.5201 43.978C74.8151 45.1484 70.5292 43.9275 66.8579 42.6055C66.5884 42.4792 66.2684 42.4792 65.9821 42.6223L60.8289 45.2326C62.8666 43.1696 65.1233 41.3003 67.5652 39.8604Z" fill="#1F2C48"/>
<path d="M84.2796 33.562C86.6289 33.562 88.5319 31.659 88.5319 29.3097C88.5319 26.9604 86.6289 25.0574 84.2796 25.0574C81.9304 25.0574 80.0273 26.9604 80.0273 29.3097C80.0273 31.659 81.9304 33.562 84.2796 33.562Z" fill="#1F2C48"/>
</svg>
